<svg width="24" height="24" viewBox="0 0 24 24" fill="none" xmlns="http://www.w3.org/2000/svg">
<rect width="24" height="24" fill="black"/>
<path d="M5.01562 6.625H9.25781C10.1276 6.625 10.875 6.75521 11.5 7.01562C12.1302 7.27604 12.6146 7.66146 12.9531 8.17188C13.2917 8.68229 13.4609 9.3099 13.4609 10.0547C13.4609 10.6641 13.3568 11.1875 13.1484 11.625C12.9453 12.0573 12.6562 12.4193 12.2812 12.7109C11.9115 12.9974 11.4766 13.2266 10.9766 13.3984L10.2344 13.7891H6.54688L6.53125 11.9609H9.27344C9.6849 11.9609 10.026 11.888 10.2969 11.7422C10.5677 11.5964 10.7708 11.3932 10.9062 11.1328C11.0469 10.8724 11.1172 10.5703 11.1172 10.2266C11.1172 9.86198 11.0495 9.54688 10.9141 9.28125C10.7786 9.01562 10.5729 8.8125 10.2969 8.67188C10.0208 8.53125 9.67448 8.46094 9.25781 8.46094H7.35938V18H5.01562V6.625ZM11.375 18L8.78125 12.9297L11.2578 12.9141L13.8828 17.8906V18H11.375Z" fill="white"/>
<path d="M18.125 11.3906V18H15.875V9.54688H17.9922L18.125 11.3906ZM20.6719 9.49219L20.6328 11.5781C20.5234 11.5625 20.3906 11.5495 20.2344 11.5391C20.0833 11.5234 19.9453 11.5156 19.8203 11.5156C19.5026 11.5156 19.2266 11.5573 18.9922 11.6406C18.763 11.7188 18.5703 11.8359 18.4141 11.9922C18.263 12.1484 18.1484 12.3385 18.0703 12.5625C17.9974 12.7865 17.9557 13.0417 17.9453 13.3281L17.4922 13.1875C17.4922 12.6406 17.5469 12.138 17.6562 11.6797C17.7656 11.2161 17.9245 10.8125 18.1328 10.4688C18.3464 10.125 18.6068 9.85938 18.9141 9.67188C19.2214 9.48438 19.5729 9.39062 19.9688 9.39062C20.0938 9.39062 20.2214 9.40104 20.3516 9.42188C20.4818 9.4375 20.5885 9.46094 20.6719 9.49219Z" fill="white"/>
</svg>
